<svg width="1366" height="768"><g transform="translate(1,1)"><g><path class="link" d="M15,84.42055329261811C296.57142857142856,84.42055329261811 296.57142857142856,121.81387043451707 578.1428571428571,121.81387043451707" style="stroke-width: 168.841;"><title>Nuclear → Thermal generation
840 TWh</title></path><path class="link" d="M593.1428571428571,116.5023720131756C971.0714285714286,116.5023720131756 971.0714285714286,138.84071108454495 1349,138.84071108454495" style="stroke-width: 158.218;"><title>Thermal generation → Losses
787 TWh</title></path><path class="link" d="M207.71428571428572,662.4632325138947C296.57142857142856,662.4632325138947 296.57142857142856,650.6647371451756 385.42857142857144,650.6647371451756" style="stroke-width: 123.014;"><title>Oil → Liquid
612 TWh</title></path><path class="link" d="M593.1428571428571,248.42902186006205C682,248.42902186006205 682,273.1612889371869 770.8571428571429,273.1612889371869" style="stroke-width: 105.635;"><title>Thermal generation → Electricity grid
526 TWh</title></path><path class="link" d="M15,661.6332546908284C103.85714285714286,661.6332546908284 103.85714285714286,651.6387265729358 192.71428571428572,651.6387265729358" style="stroke-width: 101.365;"><title>Oil imports → Oil
504 TWh</title></path><path class="link" d="M400.42857142857144,248.55573348707836C489.2857142857143,248.55573348707836 489.2857142857143,246.4478004863387 578.1428571428571,246.4478004863387" style="stroke-width: 80.4268;"><title>Solid → Thermal generation
400 TWh</title></path><path class="link" d="M785.8571428571429,266.12766662609C1067.4285714285716,266.12766662609 1067.4285714285716,290.0116536294009 1349,290.0116536294009" style="stroke-width: 68.7774;"><title>Electricity grid → Industry
342 TWh</title></path><path class="link" d="M15,434.4136451434734C392.92857142857144,434.4136451434734 392.92857142857144,355.06111919047277 770.8571428571429,355.06111919047277" style="stroke-width: 58.1645;"><title>Wind → Electricity grid
289 TWh</title></path><path class="link" d="M207.71428571428572,224.4586267380974C296.57142857142856,224.4586267380974 296.57142857142856,236.515640242554 385.42857142857144,236.515640242554" style="stroke-width: 56.3466;"><title>Bio-conversion → Solid
280 TWh</title></path><path class="link" d="M400.42857142857144,663.0257373975779C874.7142857142858,663.0257373975779 874.7142857142858,674.8187608841895 1349,674.8187608841895" style="stroke-width: 41.461;"><title>Liquid → International aviation
206 TWh</title></path><path class="link" d="M15,567.3454662455034C682,567.3454662455034 682,538.6190439479241 1349,538.6190439479241" style="stroke-width: 38.7995;"><title>Pumped heat → Heating and cooling - homes
193 TWh</title></path><path class="link" d="M15,197.13371056389917C103.85714285714286,197.13371056389917 103.85714285714286,209.17850840119274 192.71428571428572,209.17850840119274" style="stroke-width: 36.5852;"><title>UK land based bioenergy → Bio-conversion
182 TWh</title></path><path class="link" d="M400.42857142857144,323.5543273210695C489.2857142857143,323.5543273210695 489.2857142857143,301.9267226052649 578.1428571428571,301.9267226052649" style="stroke-width: 30.5311;"><title>Gas → Thermal generation
152 TWh</title></path><path class="link" d="M400.42857142857144,628.6433605704335C874.7142857142858,628.6433605704335 874.7142857142858,630.436384057045 1349,630.436384057045" style="stroke-width: 27.3037;"><title>Liquid → Road transport
136 TWh</title></path><path class="link" d="M400.42857142857144,696.6900182111654C874.7142857142858,696.6900182111654 874.7142857142858,718.4830416977769 1349,718.4830416977769" style="stroke-width: 25.8675;"><title>Liquid → International shipping
129 TWh</title></path><path class="link" d="M15,237.9619895145674C103.85714285714286,237.9619895145674 103.85714285714286,240.00678735186096 192.71428571428572,240.00678735186096" style="stroke-width: 25.0714;"><title>Agricultural 'waste' → Bio-conversion
125 TWh</title></path><path class="link" d="M207.71428571428572,362.2180497192983C296.57142857142856,362.2180497192983 296.57142857142856,336.9563406607252 385.42857142857144,336.9563406607252" style="stroke-width: 24.7142;"><title>Ngas → Gas
123 TWh</title></path><path class="link" d="M400.42857142857144,601.2052586287662C874.7142857142858,601.2052586287662 874.7142857142858,348.47130235015766 1349,348.47130235015766" style="stroke-width: 24.3351;"><title>Liquid → Industry
121 TWh</title></path><path class="link" d="M785.8571428571429,377.74973711357137C1067.4285714285716,377.74973711357137 1067.4285714285716,494.63418069400416 1349,494.63418069400416" style="stroke-width: 22.8597;"><title>Electricity grid → Heating and cooling - homes
114 TWh</title></path><path class="link" d="M15,733.1402636952895C103.85714285714286,733.1402636952895 103.85714285714286,713.1457355773969 192.71428571428572,713.1457355773969" style="stroke-width: 21.649;"><title>Oil reserves → Oil
108 TWh</title></path><path class="link" d="M785.8571428571429,316.4695640366957C1067.4285714285716,316.4695640366957 1067.4285714285716,381.1367040130559 1349,381.1367040130559" style="stroke-width: 20.9957;"><title>Electricity grid → Over generation / exports
104 TWh</title></path><path class="link" d="M785.8571428571429,336.36388896260314C1067.4285714285716,336.36388896260314 1067.4285714285716,411.03102893896335 1349,411.03102893896335" style="stroke-width: 18.7929;"><title>Electricity grid → Lighting &amp; appliances - homes
93 TWh</title></path><path class="link" d="M785.8571428571429,354.806443851305C1067.4285714285716,354.806443851305 1067.4285714285716,439.4735838276652 1349,439.4735838276652" style="stroke-width: 18.0922;"><title>Electricity grid → Lighting &amp; appliances - commercial
90 TWh</title></path><path class="link" d="M15,368.88193573914634C103.85714285714286,368.88193573914634 103.85714285714286,358.12565621670404 192.71428571428572,358.12565621670404" style="stroke-width: 16.5294;"><title>Gas reserves → Ngas
82 TWh</title></path><path class="link" d="M207.71428571428572,260.7871492904374C296.57142857142856,260.7871492904374 296.57142857142856,316.44402099900765 385.42857142857144,316.44402099900765" style="stroke-width: 16.3105;"><title>Bio-conversion → Gas
81 TWh</title></path><path class="link" d="M593.1428571428571,309.21944240032974C682,309.21944240032974 682,422.96257263351134 770.8571428571429,422.96257263351134" style="stroke-width: 15.9457;"><title>Thermal generation → District heating
79 TWh</title></path><path class="link" d="M15,268.3178255523369C103.85714285714286,268.3178255523369 103.85714285714286,260.36262338963047 192.71428571428572,260.36262338963047" style="stroke-width: 15.6403;"><title>Other waste → Bio-conversion
78 TWh</title></path><path class="link" d="M207.71428571428572,323.7284621827876C296.57142857142856,323.7284621827876 296.57142857142856,290.69364776393166 385.42857142857144,290.69364776393166" style="stroke-width: 15.1903;"><title>Coal → Solid
76 TWh</title></path><path class="link" d="M15,593.8479830520827C682,593.8479830520827 682,587.8838706475121 1349,587.8838706475121" style="stroke-width: 14.2055;"><title>Pumped heat → Heating and cooling - commercial
71 TWh</title></path><path class="link" d="M15,331.8556732259585C103.85714285714286,331.8556732259585 103.85714285714286,322.56202098847757 192.71428571428572,322.56202098847757" style="stroke-width: 12.8574;"><title>Coal reserves → Coal
64 TWh</title></path><path class="link" d="M207.71428571428572,494.05523305827364C489.2857142857143,494.05523305827364 489.2857142857143,395.3949993954784 770.8571428571429,395.3949993954784" style="stroke-width: 12.0405;"><title>Solar PV → Electricity grid
60 TWh</title></path><path class="link" d="M15,528.0534805996967C103.85714285714286,528.0534805996967 103.85714285714286,494.05523305827364 192.71428571428572,494.05523305827364" style="stroke-width: 12.0405;"><title>Solar → Solar PV
60 TWh</title></path><path class="link" d="M785.8571428571429,226.04132602659752C1067.4285714285716,226.04132602659752 1067.4285714285716,229.04683682173038 1349,229.04683682173038" style="stroke-width: 11.3953;"><title>Electricity grid → Losses
57 TWh</title></path><path class="link" d="M15,281.82516634086704C200.21428571428572,281.82516634086704 200.21428571428572,270.3761034799991 385.42857142857144,270.3761034799991" style="stroke-width: 11.3744;"><title>Other waste → Solid
57 TWh</title></path><path class="link" d="M400.42857142857144,343.9839327743675C874.7142857142858,343.9839327743675 874.7142857142858,329.2828120363164 1349,329.2828120363164" style="stroke-width: 9.7649;"><title>Gas → Industry
49 TWh</title></path><path class="link" d="M400.42857142857144,293.4402016979402C874.7142857142858,293.4402016979402 874.7142857142858,250.9518536432707 1349,250.9518536432707" style="stroke-width: 9.34218;"><title>Solid → Industry
46 TWh</title></path><path class="link" d="M785.8571428571429,421.76990008027366C1067.4285714285716,421.76990008027366 1067.4285714285716,510.70566194353995 1349,510.70566194353995" style="stroke-width: 9.28329;"><title>District heating → Heating and cooling - homes
46 TWh</title></path><path class="link" d="M785.8571428571429,393.28593783571654C1067.4285714285716,393.28593783571654 1067.4285714285716,572.1251556392906 1349,572.1251556392906" style="stroke-width: 8.21273;"><title>Electricity grid → Heating and cooling - commercial
41 TWh</title></path><path class="link" d="M15,391.2390163632031C103.85714285714286,391.2390163632031 103.85714285714286,370.4827368407608 192.71428571428572,370.4827368407608" style="stroke-width: 8.18479;"><title>Gas imports → Ngas
41 TWh</title></path><path class="link" d="M785.8571428571429,401.1910241823005C1067.4285714285716,401.1910241823005 1067.4285714285716,608.7853621093087 1349,608.7853621093087" style="stroke-width: 7.59745;"><title>Electricity grid → Road transport
38 TWh</title></path><path class="link" d="M15,757.4823848181243C200.21428571428572,757.4823848181243 200.21428571428572,715.6893613315126 385.42857142857144,715.6893613315126" style="stroke-width: 7.03523;"><title>Biofuel imports → Liquid
35 TWh</title></path><path class="link" d="M15,311.90936504097755C200.21428571428572,311.90936504097755 200.21428571428572,279.58089838464065 385.42857142857144,279.58089838464065" style="stroke-width: 7.03523;"><title>Biomass imports → Solid
35 TWh</title></path><path class="link" d="M400.42857142857144,712.9623050359407C874.7142857142858,712.9623050359407 874.7142857142858,744.7553285225523 1349,744.7553285225523" style="stroke-width: 6.67704;"><title>Liquid → National navigation
33 TWh</title></path><path class="link" d="M785.8571428571429,303.2440344758793C874.7142857142858,303.2440344758793 874.7142857142858,317.31158638583213 963.5714285714287,317.31158638583213" style="stroke-width: 5.45532;"><title>Electricity grid → H2 conversion
27 TWh</title></path><path class="link" d="M207.71428571428572,193.58562382297393C778.3571428571429,193.58562382297393 778.3571428571429,220.64948535626573 1349,220.64948535626573" style="stroke-width: 5.39944;"><title>Bio-conversion → Losses
27 TWh</title></path><path class="link" d="M785.8571428571429,428.6733706296412C1067.4285714285716,428.6733706296412 1067.4285714285716,578.5192755103226 1349,578.5192755103226" style="stroke-width: 4.52365;"><title>District heating → Heating and cooling - commercial
23 TWh</title></path><path class="link" d="M978.5714285714287,317.938827424406C1067.4285714285716,317.938827424406 1067.4285714285716,392.96390955236615 1156.2857142857142,392.96390955236615" style="stroke-width: 4.20043;"><title>H2 conversion → H2
21 TWh</title></path><path class="link" d="M1171.2857142857142,392.96390955236615C1260.142857142857,392.96390955236615 1260.142857142857,614.6843022660236 1349,614.6843022660236" style="stroke-width: 4.20043;"><title>H2 → Road transport
21 TWh</title></path><path class="link" d="M207.71428571428572,527.9701424546087C778.3571428571429,527.9701424546087 778.3571428571429,517.2833008237748 1349,517.2833008237748" style="stroke-width: 3.87199;"><title>Solar Thermal → Heating and cooling - homes
19 TWh</title></path><path class="link" d="M15,536.0097231213542C103.85714285714286,536.0097231213542 103.85714285714286,527.9701424546087 192.71428571428572,527.9701424546087" style="stroke-width: 3.87199;"><title>Solar → Solar Thermal
19 TWh</title></path><path class="link" d="M15,475.4067494912352C392.92857142857144,475.4067494912352 392.92857142857144,386.05422353823457 770.8571428571429,386.05422353823457" style="stroke-width: 3.82174;"><title>Wave → Electricity grid
19 TWh</title></path><path class="link" d="M400.42857142857144,717.7538999334009C874.7142857142858,717.7538999334009 874.7142857142858,759.5469234200126 1349,759.5469234200126" style="stroke-width: 2.90615;"><title>Liquid → Domestic aviation
14 TWh</title></path><path class="link" d="M15,349.45080742337376C103.85714285714286,349.45080742337376 103.85714285714286,330.1571551858928 192.71428571428572,330.1571551858928" style="stroke-width: 2.33288;"><title>Coal imports → Coal
12 TWh</title></path><path class="link" d="M785.8571428571429,416.0590015808529C1067.4285714285716,416.0590015808529 1067.4285714285716,335.23451642075923 1349,335.23451642075923" style="stroke-width: 2.13851;"><title>District heating → Industry
11 TWh</title></path><path class="link" d="M15,511.0832758651644C392.92857142857144,511.0832758651644 392.92857142857144,403.77124516985185 770.8571428571429,403.77124516985185" style="stroke-width: 1.89991;"><title>Tidal → Electricity grid
9 TWh</title></path><path class="link" d="M785.8571428571429,365.52964247502587C1067.4285714285716,365.52964247502587 1067.4285714285716,471.52704400988057 1349,471.52704400988057" style="stroke-width: 1.58051;"><title>Electricity grid → Rail transport
8 TWh</title></path><path class="link" d="M15,488.022448140478C392.92857142857144,488.022448140478 392.92857142857144,388.66992218747737 770.8571428571429,388.66992218747737" style="stroke-width: 1.40966;"><title>Geothermal → Electricity grid
7 TWh</title></path><path class="link" d="M15,499.43029823955555C392.92857142857144,499.43029823955555 392.92857142857144,402.11826754424294 770.8571428571429,402.11826754424294" style="stroke-width: 1.40604;"><title>Hydro → Electricity grid
7 TWh</title></path><path class="link" d="M978.5714285714287,315.21126861237957C1163.7857142857142,315.21126861237957 1163.7857142857142,235.65342064974763 1349,235.65342064974763" style="stroke-width: 1.25468;"><title>H2 conversion → Losses
6 TWh</title></path><path class="link" d="M400.42857142857144,614.5479750267846C874.7142857142858,614.5479750267846 874.7142857142858,472.7608224091008 1349,472.7608224091008" style="stroke-width: 1;"><title>Liquid → Rail transport
4 TWh</title></path><path class="link" d="M785.8571428571429,364.2959645790966C1067.4285714285716,364.2959645790966 1067.4285714285716,459.14039236062337 1349,459.14039236062337" style="stroke-width: 1;"><title>Electricity grid → Agriculture
4 TWh</title></path><path class="link" d="M15,297.9520479613674C103.85714285714286,297.9520479613674 103.85714285714286,268.6224863531293 192.71428571428572,268.6224863531293" style="stroke-width: 1;"><title>Marine algae → Bio-conversion
4 TWh</title></path><path class="link" d="M400.42857142857144,613.7386220250803C874.7142857142858,613.7386220250803 874.7142857142858,460.37095465453444 1349,460.37095465453444" style="stroke-width: 1;"><title>Liquid → Agriculture
4 TWh</title></path><path class="link" d="M400.42857142857144,349.0770375445599C874.7142857142858,349.0770375445599 874.7142857142858,459.79446777787047 1349,459.79446777787047" style="stroke-width: 1;"><title>Gas → Agriculture
2 TWh</title></path><path class="link" d="M400.42857142857144,338.960677791358C874.7142857142858,338.960677791358 874.7142857142858,234.8852739973169 1349,234.8852739973169" style="stroke-width: 1;"><title>Gas → Losses
1 TWh</title></path><path class="link" d="M400.42857142857144,298.1999370521818C874.7142857142858,298.1999370521818 874.7142857142858,458.60832793854195 1349,458.60832793854195" style="stroke-width: 1;"><title>Solid → Agriculture
1 TWh</title></path><path class="link" d="M207.71428571428572,269.00238879277185C296.57142857142856,269.00238879277185 296.57142857142856,589.0977276760408 385.42857142857144,589.0977276760408" style="stroke-width: 1;"><title>Bio-conversion → Liquid
1 TWh</title></path><path class="link" d="M400.42857142857144,349.3006573668363C874.7142857142858,349.3006573668363 874.7142857142858,576.2444840238489 1349,576.2444840238489" style="stroke-width: 1;"><title>Gas → Heating and cooling - commercial
0 TWh</title></path></g><g><g class="node" transform="translate(0,225.4263145425622)"><rect height="25.071349944010336" width="15" style="fill: rgb(31, 119, 180); stroke: rgb(15, 58, 88);"><title>Agricultural 'waste'
125 TWh</title></rect><text x="21" y="12.535674972005168" dy=".35em" text-anchor="start">Agricultural 'waste'</text></g><g class="node" transform="translate(192.71428571428572,190.88590442252973)"><rect height="78.17648483491585" width="15" style="fill: rgb(174, 199, 232); stroke: rgb(85, 97, 113);"><title>Bio-conversion
389 TWh</title></rect><text x="21" y="39.08824241745793" dy=".35em" text-anchor="start">Bio-conversion</text></g><g class="node" transform="translate(385.42857142857144,589.037727211367)"><rect height="130.16924930202134" width="15" style="fill: rgb(255, 127, 14); stroke: rgb(124, 62, 6);"><title>Liquid
648 TWh</title></rect><text x="21" y="65.08462465101067" dy=".35em" text-anchor="start">Liquid</text></g><g class="node" transform="translate(1349,59.73165621326838)"><rect height="176.54910597834407" width="15" style="fill: rgb(255, 187, 120); stroke: rgb(124, 91, 58);"><title>Losses
878 TWh</title></rect><text x="-6" y="88.27455298917204" dy=".35em" text-anchor="end">Losses</text></g><g class="node" transform="translate(385.42857142857144,208.34235672787474)"><rect height="89.94642523347213" width="15" style="fill: rgb(44, 160, 44); stroke: rgb(21, 78, 21);"><title>Solid
447 TWh</title></rect><text x="21" y="44.97321261673606" dy=".35em" text-anchor="start">Solid</text></g><g class="node" transform="translate(385.42857142857144,308.2887819613469)"><rect height="41.02484033001689" width="15" style="fill: rgb(152, 223, 138); stroke: rgb(74, 109, 67);"><title>Gas
204 TWh</title></rect><text x="21" y="20.512420165008447" dy=".35em" text-anchor="start">Gas</text></g><g class="node" transform="translate(0,753.9647696362485)"><rect height="7.0352303637515075" width="15" style="fill: rgb(214, 39, 40); stroke: rgb(104, 19, 19);"><title>Biofuel imports
35 TWh</title></rect><text x="21" y="3.5176151818757537" dy=".35em" text-anchor="start">Biofuel imports</text></g><g class="node" transform="translate(0,308.3917498591018)"><rect height="7.0352303637515075" width="15" style="fill: rgb(255, 152, 150); stroke: rgb(124, 74, 73);"><title>Biomass imports
35 TWh</title></rect><text x="21" y="3.5176151818757537" dy=".35em" text-anchor="start">Biomass imports</text></g><g class="node" transform="translate(0,348.2843662290638)"><rect height="2.33288238862" width="15" style="fill: rgb(148, 103, 189); stroke: rgb(72, 50, 92);"><title>Coal imports
12 TWh</title></rect><text x="21" y="1.16644119431" dy=".35em" text-anchor="start">Coal imports</text></g><g class="node" transform="translate(192.71428571428572,316.1333279853724)"><rect height="15.190268394830433" width="15" style="fill: rgb(148, 103, 189); stroke: rgb(72, 50, 92);"><title>Coal
76 TWh</title></rect><text x="21" y="7.5951341974152164" dy=".35em" text-anchor="start">Coal</text></g><g class="node" transform="translate(0,325.42698022285333)"><rect height="12.857386006210433" width="15" style="fill: rgb(148, 103, 189); stroke: rgb(72, 50, 92);"><title>Coal reserves
64 TWh</title></rect><text x="21" y="6.4286930031052165" dy=".35em" text-anchor="start">Coal reserves</text></g><g class="node" transform="translate(770.8571428571429,414.9897470688536)"><rect height="15.945651129315522" width="15" style="fill: rgb(197, 176, 213); stroke: rgb(96, 86, 104);"><title>District heating
79 TWh</title></rect><text x="-6" y="7.972825564657761" dy=".35em" text-anchor="end">District heating</text></g><g class="node" transform="translate(1349,246.28076219161244)"><rect height="114.3580715759444" width="15" style="fill: rgb(140, 86, 75); stroke: rgb(68, 42, 36);"><title>Industry
569 TWh</title></rect><text x="-6" y="57.1790357879722" dy=".35em" text-anchor="end">Industry</text></g><g class="node" transform="translate(1349,568.0187921792598)"><rect height="26.96784704349592" width="15" style="fill: rgb(196, 156, 148); stroke: rgb(96, 76, 72);"><title>Heating and cooling - commercial
134 TWh</title></rect><text x="-6" y="13.48392352174796" dy=".35em" text-anchor="end">Heating and cooling - commercial</text></g><g class="node" transform="translate(1349,483.2043434318898)"><rect height="74.81444874736992" width="15" style="fill: rgb(196, 156, 148); stroke: rgb(96, 76, 72);"><title>Heating and cooling - homes
372 TWh</title></rect><text x="-6" y="37.40722437368496" dy=".35em" text-anchor="end">Heating and cooling - homes</text></g><g class="node" transform="translate(770.8571428571429,220.343693961577)"><rect height="184.64605310727663" width="15" style="fill: rgb(227, 119, 194); stroke: rgb(111, 58, 95);"><title>Electricity grid
919 TWh</title></rect><text x="-6" y="92.32302655363831" dy=".35em" text-anchor="end">Electricity grid</text></g><g class="node" transform="translate(1349,370.63883376755683)"><rect height="20.995740490998177" width="15" style="fill: rgb(247, 182, 210); stroke: rgb(121, 89, 102);"><title>Over generation / exports
104 TWh</title></rect><text x="-6" y="10.497870245499088" dy=".35em" text-anchor="end">Over generation / exports</text></g><g class="node" transform="translate(963.5714285714287,314.58392707051473)"><rect height="5.45531863063474" width="15" style="fill: rgb(127, 127, 127); stroke: rgb(62, 62, 62);"><title>H2 conversion
27 TWh</title></rect><text x="-6" y="2.72765931531737" dy=".35em" text-anchor="end">H2 conversion</text></g><g class="node" transform="translate(1349,604.9866392227557)"><rect height="39.10160935514905" width="15" style="fill: rgb(199, 199, 199); stroke: rgb(97, 97, 97);"><title>Road transport
195 TWh</title></rect><text x="-6" y="19.550804677574526" dy=".35em" text-anchor="end">Road transport</text></g><g class="node" transform="translate(1349,458.5196840359587)"><rect height="2.217102597490832" width="15" style="fill: rgb(188, 189, 34); stroke: rgb(92, 92, 16);"><title>Agriculture
11 TWh</title></rect><text x="-6" y="1.108551298745416" dy=".35em" text-anchor="end">Agriculture</text></g><g class="node" transform="translate(1349,470.73678663344947)"><rect height="2.467556798440386" width="15" style="fill: rgb(219, 219, 141); stroke: rgb(107, 107, 69);"><title>Rail transport
12 TWh</title></rect><text x="-6" y="1.233778399220193" dy=".35em" text-anchor="end">Rail transport</text></g><g class="node" transform="translate(1349,430.4274836193717)"><rect height="18.09220041658702" width="15" style="fill: rgb(23, 190, 207); stroke: rgb(11, 93, 101);"><title>Lighting &amp; appliances - commercial
90 TWh</title></rect><text x="-6" y="9.04610020829351" dy=".35em" text-anchor="end">Lighting &amp; appliances - commercial</text></g><g class="node" transform="translate(1349,401.634574258555)"><rect height="18.79290936081667" width="15" style="fill: rgb(23, 190, 207); stroke: rgb(11, 93, 101);"><title>Lighting &amp; appliances - homes
93 TWh</title></rect><text x="-6" y="9.396454680408334" dy=".35em" text-anchor="end">Lighting &amp; appliances - homes</text></g><g class="node" transform="translate(0,387.1466228606089)"><rect height="8.184787005188504" width="15" style="fill: rgb(152, 223, 138); stroke: rgb(74, 109, 67);"><title>Gas imports
41 TWh</title></rect><text x="21" y="4.092393502594252" dy=".35em" text-anchor="start">Gas imports</text></g><g class="node" transform="translate(192.71428571428572,349.8609690952415)"><rect height="24.71416124811358" width="15" style="fill: rgb(158, 218, 229); stroke: rgb(77, 106, 112);"><title>Ngas
123 TWh</title></rect><text x="21" y="12.35708062405679" dy=".35em" text-anchor="start">Ngas</text></g><g class="node" transform="translate(0,360.6172486176838)"><rect height="16.529374242925076" width="15" style="fill: rgb(152, 223, 138); stroke: rgb(74, 109, 67);"><title>Gas reserves
82 TWh</title></rect><text x="21" y="8.264687121462538" dy=".35em" text-anchor="start">Gas reserves</text></g><g class="node" transform="translate(578.1428571428571,37.393317141899026)"><rect height="279.7989508230885" width="15" style="fill: rgb(31, 119, 180); stroke: rgb(15, 58, 88);"><title>Thermal generation
1,392 TWh</title></rect><text x="21" y="139.89947541154424" dy=".35em" text-anchor="start">Thermal generation</text></g><g class="node" transform="translate(0,487.317618561321)"><rect height="1.4096591583139806" width="15" style="fill: rgb(174, 199, 232); stroke: rgb(85, 97, 113);"><title>Geothermal
7 TWh</title></rect><text x="21" y="0.7048295791569903" dy=".35em" text-anchor="start">Geothermal</text></g><g class="node" transform="translate(1156.2857142857142,390.8636922822045)"><rect height="4.200434540323292" width="15" style="fill: rgb(127, 127, 127); stroke: rgb(62, 62, 62);"><title>H2
21 TWh</title></rect><text x="-6" y="2.100217270161646" dy=".35em" text-anchor="end">H2</text></g><g class="node" transform="translate(0,498.72727771963497)"><rect height="1.406041039841194" width="15" style="fill: rgb(255, 127, 14); stroke: rgb(124, 62, 6);"><title>Hydro
7 TWh</title></rect><text x="21" y="0.703020519920597" dy=".35em" text-anchor="start">Hydro</text></g><g class="node" transform="translate(1349,705.5492731904743)"><rect height="25.867537014605183" width="15" style="fill: rgb(255, 187, 120); stroke: rgb(124, 91, 58);"><title>International shipping
129 TWh</title></rect><text x="-6" y="12.933768507302592" dy=".35em" text-anchor="end">International shipping</text></g><g class="node" transform="translate(1349,758.0938468400252)"><rect height="2.9061531599748367" width="15" style="fill: rgb(44, 160, 44); stroke: rgb(21, 78, 21);"><title>Domestic aviation
14 TWh</title></rect><text x="-6" y="1.4530765799874183" dy=".35em" text-anchor="end">Domestic aviation</text></g><g class="node" transform="translate(1349,654.0882485779048)"><rect height="41.46102461256949" width="15" style="fill: rgb(255, 187, 120); stroke: rgb(124, 91, 58);"><title>International aviation
206 TWh</title></rect><text x="-6" y="20.730512306284744" dy=".35em" text-anchor="end">International aviation</text></g><g class="node" transform="translate(1349,741.4168102050795)"><rect height="6.677036634945646" width="15" style="fill: rgb(152, 223, 138); stroke: rgb(74, 109, 67);"><title>National navigation
33 TWh</title></rect><text x="-6" y="3.338518317472823" dy=".35em" text-anchor="end">National navigation</text></g><g class="node" transform="translate(0,297.5123460636329)"><rect height="0.8794037954689384" width="15" style="fill: rgb(214, 39, 40); stroke: rgb(104, 19, 19);"><title>Marine algae
4 TWh</title></rect><text x="21" y="0.4397018977344692" dy=".35em" text-anchor="start">Marine algae</text></g><g class="node" transform="translate(0,7.105427357601002e-14)"><rect height="168.84110658523608" width="15" style="fill: rgb(255, 152, 150); stroke: rgb(124, 74, 73);"><title>Nuclear
840 TWh</title></rect><text x="21" y="84.42055329261804" dy=".35em" text-anchor="start">Nuclear</text></g><g class="node" transform="translate(0,610.9507516273261)"><rect height="101.36500612700446" width="15" style="fill: rgb(148, 103, 189); stroke: rgb(72, 50, 92);"><title>Oil imports
504 TWh</title></rect><text x="21" y="50.68250306350223" dy=".35em" text-anchor="start">Oil imports</text></g><g class="node" transform="translate(192.71428571428572,600.9562235094335)"><rect height="123.01401800892242" width="15" style="fill: rgb(148, 103, 189); stroke: rgb(72, 50, 92);"><title>Oil
612 TWh</title></rect><text x="21" y="61.50700900446121" dy=".35em" text-anchor="start">Oil</text></g><g class="node" transform="translate(0,722.3157577543305)"><rect height="21.64901188191796" width="15" style="fill: rgb(148, 103, 189); stroke: rgb(72, 50, 92);"><title>Oil reserves
108 TWh</title></rect><text x="21" y="10.82450594095898" dy=".35em" text-anchor="start">Oil reserves</text></g><g class="node" transform="translate(0,260.49766448657255)"><rect height="27.014681577060323" width="15" style="fill: rgb(197, 176, 213); stroke: rgb(96, 86, 104);"><title>Other waste
134 TWh</title></rect><text x="21" y="13.507340788530161" dy=".35em" text-anchor="start">Other waste</text></g><g class="node" transform="translate(0,547.9457180141677)"><rect height="53.005033613158425" width="15" style="fill: rgb(140, 86, 75); stroke: rgb(68, 42, 36);"><title>Pumped heat
264 TWh</title></rect><text x="21" y="26.502516806579212" dy=".35em" text-anchor="start">Pumped heat</text></g><g class="node" transform="translate(192.71428571428572,488.03498542942964)"><rect height="12.040495257687972" width="15" style="fill: rgb(196, 156, 148); stroke: rgb(96, 76, 72);"><title>Solar PV
60 TWh</title></rect><text x="21" y="6.020247628843986" dy=".35em" text-anchor="start">Solar PV</text></g><g class="node" transform="translate(192.71428571428572,526.0341475617952)"><rect height="3.8719897856270085" width="15" style="fill: rgb(196, 156, 148); stroke: rgb(96, 76, 72);"><title>Solar Thermal
19 TWh</title></rect><text x="21" y="1.9359948928135042" dy=".35em" text-anchor="start">Solar Thermal</text></g><g class="node" transform="translate(0,522.0332329708527)"><rect height="15.91248504331498" width="15" style="fill: rgb(196, 156, 148); stroke: rgb(96, 76, 72);"><title>Solar
79 TWh</title></rect><text x="21" y="7.95624252165749" dy=".35em" text-anchor="start">Solar</text></g><g class="node" transform="translate(0,510.13331875947614)"><rect height="1.89991421137655" width="15" style="fill: rgb(227, 119, 194); stroke: rgb(111, 58, 95);"><title>Tidal
9 TWh</title></rect><text x="21" y="0.949957105688275" dy=".35em" text-anchor="start">Tidal</text></g><g class="node" transform="translate(0,178.84110658523616)"><rect height="36.58520795732605" width="15" style="fill: rgb(247, 182, 210); stroke: rgb(121, 89, 102);"><title>UK land based bioenergy
182 TWh</title></rect><text x="21" y="18.292603978663024" dy=".35em" text-anchor="start">UK land based bioenergy</text></g><g class="node" transform="translate(0,473.49588042114937)"><rect height="3.8217381401716404" width="15" style="fill: rgb(127, 127, 127); stroke: rgb(62, 62, 62);"><title>Wave
19 TWh</title></rect><text x="21" y="1.9108690700858202" dy=".35em" text-anchor="start">Wave</text></g><g class="node" transform="translate(0,405.3314098657974)"><rect height="58.164470555351954" width="15" style="fill: rgb(199, 199, 199); stroke: rgb(97, 97, 97);"><title>Wind
289 TWh</title></rect><text x="21" y="29.082235277675977" dy=".35em" text-anchor="start">Wind</text></g></g></g></svg>
